# xmcd
#
# Track frame offsets: 
#        150
#        25155
#        43785
#        67212
#        89930
#        102965
#        118127
#        132095
#        159040
#        170352
#
# Disc length: 2563 seconds
#
# Revision: 5
# Processed by: cddbd v1.5.2PL0 Copyright (c) Steve Scherf et al.
# Submitted via: ExactAudioCopy v1.3
#
DISCID=870a010a
DTITLE=Various Artist - Best of the Blues
DYEAR=1990
DGENRE=Blues
TTITLE0=B.B. King - Thrill Is Gone
TTITLE1=Bobby Bland - Stormy Monday
TTITLE2=John Lee Hooker - Lonesome Mood
TTITLE3=Brownie McGhee and Sunny Terry - Brownie's New Blues
TTITLE4=T-Bone Walker - Why My Baby (Keep on Bothering Me)
TTITLE5=Big Joe Turner - Little Bittie Gal's Blues
TTITLE6=Memphis Minnie McCoy - Moanin' the Blues
TTITLE7=B.B. King and Bobby Bland - I Like to LIve The Love
TTITLE8=Bobby Bland - Turn On Your Love Light
TTITLE9=B.B. King - Chains and Things
EXTD=
EXTT0=B. B. King
EXTT1=Bobby Bland
EXTT2=John Lee Hooker
EXTT3=Brownie McGhee and Sonny Terry
EXTT4=T-Bone Walker
EXTT5=Big Joe Turner
EXTT6=Memphis Millie McCoy
EXTT7=B. B. King and Bobby Bland
EXTT8=Bobby Bland
EXTT9=B. B. King with Carole King on Piano
PLAYORDER=
